<svg version="1.1" viewBox="0.0 0.0 105.60104986876641 67.1994750656168" fill="none" stroke="none" stroke-linecap="square" stroke-miterlimit="10" xmlns:xlink="http://www.w3.org/1999/xlink" xmlns="http://www.w3.org/2000/svg"><clipPath id="p.0"><path d="m0 0l105.60105 0l0 67.19948l-105.60105 0l0 -67.19948z" clip-rule="nonzero"/></clipPath><g clip-path="url(#p.0)"><path fill="#000000" fill-opacity="0.0" d="m0 0l105.60105 0l0 67.19948l-105.60105 0z" fill-rule="evenodd"/><path fill="#646464" fill-opacity="0.1844" d="m-0.27162468 -0.22047244l105.60629 0l0 67.2126l-105.60629 0z" fill-rule="evenodd"/><path fill="#000000" fill-opacity="0.0" d="m25.444033 -5.464146l150.92914 0l0 23.84252l-150.92914 0z" fill-rule="evenodd"/><path fill="#000000" d="m43.19403 7.4427295l1.515625 0l0 6.6093745q0 1.734375 -0.390625 2.750001q-0.390625 1.015625 -1.40625 1.65625q-1.015625 0.640625 -2.671875 0.640625q-1.609375 0 -2.640625 -0.5625q-1.015625 -0.5625 -1.453125 -1.609375q-0.4375 -1.046876 -0.4375 -2.875001l0 -6.6093745l1.515625 0l0 6.6093745q0 1.484375 0.265625 2.203126q0.28125 0.703125 0.953125 1.09375q0.6875 0.375 1.65625 0.375q1.671875 0 2.375 -0.75q0.71875 -0.765625 0.71875 -2.921876l0 -6.6093745zm3.8671875 14.640625l0 -11.484376l1.28125 0l0 1.078125q0.453125 -0.640625 1.015625 -0.953125q0.578125 -0.3125 1.390625 -0.3125q1.0625 0 1.875 0.546875q0.8125 0.546875 1.21875 1.546875q0.421875 0.984375 0.421875 2.171875q0 1.28125 -0.46875 2.296876q-0.453125 1.015625 -1.328125 1.5625q-0.859375 0.546875 -1.828125 0.546875q-0.703125 0 -1.265625 -0.296875q-0.546875 -0.296875 -0.90625 -0.75l0 4.046875l-1.40625 0zm1.265625 -7.296876q0 1.609376 0.640625 2.375001q0.65625 0.765625 1.578125 0.765625q0.9375 0 1.609375 -0.796875q0.671875 -0.796875 0.671875 -2.453126q0 -1.59375 -0.65625 -2.375q-0.65625 -0.796875 -1.5625 -0.796875q-0.890625 0 -1.59375 0.84375q-0.6875 0.84375 -0.6875 2.4375z" fill-rule="nonzero"/><path fill="#000000" d="m35.678406 37.895855l0 -11.453125l3.953125 0q1.328125 0 2.03125 0.15625q0.984375 0.234375 1.6875 0.828125q0.90625 0.765625 1.34375 1.953125q0.453125 1.1875 0.453125 2.71875q0 1.3125 -0.3125 2.328125q-0.296875 1.0 -0.78125 1.65625q-0.46875 0.65625 -1.03125 1.046875q-0.5625 0.375 -1.375 0.578125q-0.796875 0.1875 -1.828125 0.1875l-4.140625 0zm1.515625 -1.359375l2.453125 0q1.125 0 1.765625 -0.203125q0.65625 -0.21875 1.03125 -0.59375q0.546875 -0.546875 0.84375 -1.453125q0.296875 -0.90625 0.296875 -2.203125q0 -1.796875 -0.59375 -2.765625q-0.578125 -0.96875 -1.421875 -1.296875q-0.609375 -0.234375 -1.96875 -0.234375l-2.40625 0l0 8.75zm9.3359375 -2.796875q0 -2.296875 1.28125 -3.40625q1.078125 -0.921875 2.609375 -0.921875q1.71875 0 2.796875 1.125q1.09375 1.109375 1.09375 3.09375q0 1.59375 -0.484375 2.515625q-0.484375 0.921875 -1.40625 1.4375q-0.90625 0.5 -2.0 0.5q-1.734375 0 -2.8125 -1.109375q-1.078125 -1.125 -1.078125 -3.234375zm1.453125 0q0 1.59375 0.6875 2.390625q0.703125 0.796875 1.75 0.796875q1.046875 0 1.734375 -0.796875q0.703125 -0.796875 0.703125 -2.4375q0 -1.53125 -0.703125 -2.328125q-0.6875 -0.796875 -1.734375 -0.796875q-1.046875 0 -1.75 0.796875q-0.6875 0.78125 -0.6875 2.375zm9.5078125 4.15625l-2.546875 -8.296875l1.453125 0l1.328125 4.78125l0.484375 1.78125q0.03125 -0.125 0.4375 -1.703125l1.3125 -4.859375l1.453125 0l1.234375 4.8125l0.421875 1.578125l0.46875 -1.59375l1.421875 -4.796875l1.375 0l-2.59375 8.296875l-1.46875 0l-1.3125 -4.96875l-0.328125 -1.421875l-1.671875 6.390625l-1.46875 0zm10.0234375 0l0 -8.296875l1.265625 0l0 1.171875q0.90625 -1.359375 2.640625 -1.359375q0.75 0 1.375 0.265625q0.625 0.265625 0.9375 0.703125q0.3125 0.4375 0.4375 1.046875q0.078125 0.390625 0.078125 1.359375l0 5.109375l-1.40625 0l0 -5.046875q0 -0.859375 -0.171875 -1.28125q-0.15625 -0.4375 -0.578125 -0.6875q-0.40625 -0.25 -0.96875 -0.25q-0.90625 0 -1.5625 0.578125q-0.640625 0.5625 -0.640625 2.15625l0 4.53125l-1.40625 0z" fill-rule="nonzero"/><path fill="#000000" d="m35.66278 56.895855l0 -11.453125l1.5625 0l6.015625 8.984375l0 -8.984375l1.453125 0l0 11.453125l-1.5625 0l-6.015625 -9.0l0 9.0l-1.453125 0zm10.8671875 -4.15625q0 -2.296875 1.28125 -3.40625q1.078125 -0.921875 2.609375 -0.921875q1.71875 0 2.796875 1.125q1.09375 1.109375 1.09375 3.09375q0 1.59375 -0.484375 2.515625q-0.484375 0.921875 -1.40625 1.4375q-0.90625 0.5 -2.0 0.5q-1.734375 0 -2.8125 -1.109375q-1.078125 -1.125 -1.078125 -3.234375zm1.453125 0q0 1.59375 0.6875 2.390625q0.703125 0.796875 1.75 0.796875q1.046875 0 1.734375 -0.796875q0.703125 -0.796875 0.703125 -2.4375q0 -1.53125 -0.703125 -2.328125q-0.6875 -0.796875 -1.734375 -0.796875q-1.046875 0 -1.75 0.796875q-0.6875 0.78125 -0.6875 2.375zm12.421875 -5.6875l0 -1.609375l1.40625 0l0 1.609375l-1.40625 0zm0 9.84375l0 -8.296875l1.40625 0l0 8.296875l-1.40625 0zm3.5546875 0l0 -8.296875l1.265625 0l0 1.171875q0.90625 -1.359375 2.640625 -1.359375q0.75 0 1.375 0.265625q0.625 0.265625 0.9375 0.703125q0.3125 0.4375 0.4375 1.046875q0.078125 0.390625 0.078125 1.359375l0 5.109375l-1.40625 0l0 -5.046875q0 -0.859375 -0.171875 -1.28125q-0.15625 -0.4375 -0.578125 -0.6875q-0.40625 -0.25 -0.96875 -0.25q-0.90625 0 -1.5625 0.578125q-0.640625 0.5625 -0.640625 2.15625l0 4.53125l-1.40625 0zm9.2265625 0l0 -7.203125l-1.234375 0l0 -1.09375l1.234375 0l0 -0.890625q0 -0.828125 0.15625 -1.234375q0.203125 -0.546875 0.703125 -0.890625q0.515625 -0.34375 1.4375 -0.34375q0.59375 0 1.3125 0.140625l-0.203125 1.234375q-0.4375 -0.078125 -0.828125 -0.078125q-0.640625 0 -0.90625 0.28125q-0.265625 0.265625 -0.265625 1.015625l0 0.765625l1.609375 0l0 1.09375l-1.609375 0l0 7.203125l-1.40625 0zm3.5859375 -4.15625q0 -2.296875 1.28125 -3.40625q1.078125 -0.921875 2.609375 -0.921875q1.71875 0 2.796875 1.125q1.09375 1.109375 1.09375 3.09375q0 1.59375 -0.484375 2.515625q-0.484375 0.921875 -1.40625 1.4375q-0.90625 0.5 -2.0 0.5q-1.734375 0 -2.8125 -1.109375q-1.078125 -1.125 -1.078125 -3.234375zm1.453125 0q0 1.59375 0.6875 2.390625q0.703125 0.796875 1.75 0.796875q1.046875 0 1.734375 -0.796875q0.703125 -0.796875 0.703125 -2.4375q0 -1.53125 -0.703125 -2.328125q-0.6875 -0.796875 -1.734375 -0.796875q-1.046875 0 -1.75 0.796875q-0.6875 0.78125 -0.6875 2.375z" fill-rule="nonzero"/><path fill="#ff0000" d="m10.388451 14.551181l0 0c0 -3.7398806 3.052925 -6.771653 6.8188972 -6.771653l0 0c1.808485 0 3.5428982 0.71343994 4.8216896 1.9833717c1.2787914 1.2699308 1.9972095 2.9923277 1.9972095 4.7882814l0 0c0 3.7398806 -3.052925 6.771653 -6.818899 6.771653l0 0c-3.7659721 0 -6.8188972 -3.0317726 -6.8188972 -6.771653z" fill-rule="evenodd"/><path stroke="#000000" stroke-width="1.0" stroke-linejoin="round" stroke-linecap="butt" d="m10.388451 14.551181l0 0c0 -3.7398806 3.052925 -6.771653 6.8188972 -6.771653l0 0c1.808485 0 3.5428982 0.71343994 4.8216896 1.9833717c1.2787914 1.2699308 1.9972095 2.9923277 1.9972095 4.7882814l0 0c0 3.7398806 -3.052925 6.771653 -6.818899 6.771653l0 0c-3.7659721 0 -6.8188972 -3.0317726 -6.8188972 -6.771653z" fill-rule="evenodd"/><path fill="#0037ff" d="m10.388451 32.855648l0 0c0 -3.7398796 3.052925 -6.771652 6.8188972 -6.771652l0 0c1.808485 0 3.5428982 0.71343994 4.8216896 1.9833717c1.2787914 1.2699299 1.9972095 2.9923267 1.9972095 4.7882805l0 0c0 3.7398834 -3.052925 6.771656 -6.818899 6.771656l0 0c-3.7659721 0 -6.8188972 -3.0317726 -6.8188972 -6.771656z" fill-rule="evenodd"/><path stroke="#000000" stroke-width="1.0" stroke-linejoin="round" stroke-linecap="butt" d="m10.388451 32.855648l0 0c0 -3.7398796 3.052925 -6.771652 6.8188972 -6.771652l0 0c1.808485 0 3.5428982 0.71343994 4.8216896 1.9833717c1.2787914 1.2699299 1.9972095 2.9923267 1.9972095 4.7882805l0 0c0 3.7398834 -3.052925 6.771656 -6.818899 6.771656l0 0c-3.7659721 0 -6.8188972 -3.0317726 -6.8188972 -6.771656z" fill-rule="evenodd"/><path fill="#a6a6a6" d="m10.388451 51.16012l0 0c0 -3.7398834 3.052925 -6.771656 6.8188972 -6.771656l0 0c1.808485 0 3.5428982 0.71343994 4.8216896 1.9833717c1.2787914 1.2699318 1.9972095 2.9923286 1.9972095 4.7882843l0 0c0 3.7398796 -3.052925 6.771652 -6.818899 6.771652l0 0c-3.7659721 0 -6.8188972 -3.0317726 -6.8188972 -6.771652z" fill-rule="evenodd"/><path stroke="#000000" stroke-width="1.0" stroke-linejoin="round" stroke-linecap="butt" d="m10.388451 51.16012l0 0c0 -3.7398834 3.052925 -6.771656 6.8188972 -6.771656l0 0c1.808485 0 3.5428982 0.71343994 4.8216896 1.9833717c1.2787914 1.2699318 1.9972095 2.9923286 1.9972095 4.7882843l0 0c0 3.7398796 -3.052925 6.771652 -6.818899 6.771652l0 0c-3.7659721 0 -6.8188972 -3.0317726 -6.8188972 -6.771652z" fill-rule="evenodd"/></g></svg>